<?xml version="1.0" standalone="no"?>
<!DOCTYPE svg PUBLIC "-//W3C//DTD SVG 20010904//EN"
 "http://www.w3.org/TR/2001/REC-SVG-20010904/DTD/svg10.dtd">
<svg version="1.0" xmlns="http://www.w3.org/2000/svg"
 width="853.000000pt" height="559.000000pt" viewBox="0 0 853.000000 559.000000"
 preserveAspectRatio="xMidYMid meet">

<g transform="translate(0.000000,559.000000) scale(0.100000,-0.100000)"
fill="#000000" stroke="none">
<path d="M150 5572 c-30 -9 -40 -33 -26 -61 36 -73 84 -323 105 -561 47 -508
52 -1368 10 -1902 -31 -410 -103 -816 -178 -1001 -16 -39 -28 -73 -26 -75 1
-1 114 2 251 7 168 7 311 7 439 -1 266 -15 368 -13 460 6 199 43 355 120 472
236 64 62 163 201 163 228 0 6 7 12 15 12 8 0 15 -7 15 -15 0 -29 70 -190 107
-245 88 -133 225 -231 379 -270 151 -39 355 -21 481 43 132 67 252 196 303
325 14 34 27 62 30 62 3 0 18 -31 34 -70 96 -236 315 -379 516 -339 79 16 127
44 193 112 63 66 132 192 164 304 10 35 22 63 27 63 5 0 6 -93 1 -217 l-7
-216 48 7 c99 14 342 24 442 17 57 -3 105 -5 106 -4 2 2 -5 40 -15 86 -53 236
-69 415 -76 824 -4 266 -3 356 6 367 15 17 187 60 209 51 13 -5 14 -44 8 -338
-7 -380 -20 -647 -41 -861 -8 -82 -13 -151 -12 -152 2 -2 39 3 82 11 44 8 140
14 213 15 99 0 132 3 132 13 0 6 -5 41 -10 77 -25 166 -42 468 -48 828 -4 217
-4 398 -1 404 6 10 80 -6 138 -29 l34 -14 -6 -532 c-6 -513 -14 -650 -42 -720
-7 -16 13 -17 371 -15 l379 3 10 75 c6 41 14 74 18 73 5 -1 22 -19 39 -40 34
-43 45 -54 108 -104 100 -81 200 -115 368 -125 95 -5 134 -3 197 11 167 37
317 145 405 293 23 40 43 72 45 72 1 0 19 -27 40 -61 175 -283 558 -381 855
-217 429 236 549 964 217 1311 -62 64 -188 152 -363 252 -113 64 -205 150
-241 223 -24 50 -28 69 -28 147 0 77 3 96 25 134 14 25 40 54 59 65 66 38 154
12 181 -54 16 -38 7 -100 -17 -117 -24 -18 -63 -16 -85 4 -17 15 -18 14 -18
-23 1 -77 63 -214 120 -262 43 -37 116 -62 181 -62 127 0 228 75 281 208 47
120 24 335 -50 462 -39 68 -119 147 -192 190 -98 58 -170 74 -330 74 -119 -1
-145 -4 -216 -27 -101 -34 -213 -106 -280 -180 -97 -109 -167 -278 -181 -434
-3 -40 -9 -73 -12 -73 -4 0 -23 13 -43 30 -83 69 -188 94 -359 88 -106 -4
-138 -9 -218 -36 -125 -43 -218 -99 -314 -191 -158 -151 -259 -344 -308 -591
-20 -96 -23 -146 -23 -310 0 -199 13 -307 51 -424 l16 -50 -29 -23 c-31 -25
-124 -59 -189 -69 -56 -8 -85 16 -96 82 -10 63 -10 840 0 1459 8 415 11 485
25 519 10 21 15 40 13 43 -3 2 -96 5 -207 6 l-201 2 5 -25 c22 -96 36 -259 36
-422 0 -175 -1 -188 -19 -198 -28 -14 -140 -39 -145 -32 -3 7 8 204 19 328 l6
71 -63 -9 c-65 -9 -222 3 -287 21 l-33 10 7 -97 c17 -225 21 -318 14 -326 -5
-5 -38 -1 -81 10 -81 21 -79 18 -65 118 l7 49 -113 -7 c-114 -7 -390 7 -462
24 -22 5 -41 7 -43 5 -2 -2 3 -54 12 -116 9 -61 15 -113 13 -115 -2 -2 -25 24
-53 58 -102 128 -203 181 -349 182 -86 1 -95 -1 -168 -37 -127 -63 -222 -176
-294 -352 l-28 -69 -6 115 c-7 127 -23 182 -72 245 -94 121 -207 161 -425 152
-272 -12 -496 -143 -661 -388 -31 -47 -70 -115 -85 -152 -16 -38 -32 -68 -35
-68 -3 0 -19 31 -34 69 -52 129 -168 265 -285 334 l-32 19 75 79 c195 204 285
443 285 755 0 215 -34 384 -110 539 -121 250 -332 375 -684 406 -109 10 -372
2 -551 -16 -51 -5 -311 12 -350 23 -17 5 -37 7 -45 4z m999 -787 c110 -93 49
-368 -136 -617 -32 -43 -64 -78 -72 -78 -12 0 -13 27 -8 168 17 425 99 625
216 527z m-125 -1377 c105 -221 146 -368 146 -525 -1 -136 -34 -193 -112 -193
-64 1 -111 69 -133 197 -31 172 -8 653 30 653 4 0 35 -60 69 -132z m1693 103
c62 -38 52 -129 -22 -206 -53 -54 -151 -103 -224 -112 -61 -7 -61 -7 -26 106
43 135 131 229 215 231 14 0 39 -9 57 -19z m4052 4 c34 -17 41 -33 41 -89 0
-85 -92 -176 -223 -220 -57 -19 -107 -21 -107 -3 0 6 6 35 14 64 50 188 175
300 275 248z m-2798 -52 c16 -10 39 -38 52 -63 21 -43 22 -55 22 -330 0 -269
-1 -289 -23 -358 -31 -100 -71 -143 -138 -149 -58 -6 -90 14 -129 82 -39 66
-55 160 -55 335 0 253 31 392 100 463 34 33 43 37 90 37 31 0 64 -7 81 -17z
m3273 -94 c37 -63 147 -156 356 -301 207 -144 265 -208 290 -322 17 -80 -12
-175 -64 -209 -79 -52 -174 33 -163 146 5 58 31 87 78 87 37 0 36 11 -3 67
-125 174 -386 199 -519 51 -22 -24 -26 -23 -34 12 -8 38 -25 39 -25 2 0 -45
-57 -148 -103 -187 -52 -45 -125 -79 -199 -95 -177 -36 -345 79 -365 251 l-6
49 59 0 c130 0 280 36 388 93 140 74 229 196 272 375 5 20 19 14 38 -19z
m-4143 -210 c-6 -46 -13 -141 -17 -212 -6 -116 -9 -131 -35 -172 -50 -79 -148
-136 -268 -157 -60 -10 -74 -9 -139 11 -118 36 -195 125 -209 242 l-6 49 56 0
c86 0 205 19 280 45 137 48 231 117 299 220 23 36 43 63 45 61 2 -2 -1 -41 -6
-87z"/>
<path d="M2964 5486 c3 -22 9 -201 12 -396 6 -325 -2 -572 -22 -691 l-6 -36
48 8 c27 4 87 8 133 8 81 1 83 2 78 24 -14 56 -30 256 -31 397 -1 144 1 158
22 203 29 57 54 62 79 15 16 -29 18 -62 17 -283 0 -142 -5 -278 -12 -314 -6
-36 -10 -66 -9 -67 1 -1 60 -4 130 -6 l129 -3 -6 30 c-3 17 -10 170 -15 340
-11 339 -17 393 -58 474 -37 72 -71 96 -135 96 -47 0 -53 -3 -94 -49 -25 -27
-47 -46 -51 -43 -3 3 -1 77 5 164 6 87 10 159 9 159 -1 1 -53 4 -115 7 l-114
5 6 -42z"/>
<path d="M2575 5378 c4 -51 8 -99 11 -106 8 -26 -48 -24 -122 5 -12 4 -14 -15
-14 -115 l0 -119 58 13 c31 8 63 14 70 14 22 0 14 -395 -14 -651 l-6 -56 54 8
c29 4 90 8 134 8 l81 1 -7 43 c-22 116 -45 626 -29 641 3 3 31 -1 63 -9 31 -8
58 -15 59 -15 1 0 1 54 -1 120 -2 66 -4 120 -5 120 -1 0 -24 -7 -51 -15 -26
-8 -52 -12 -58 -9 -8 5 -3 127 7 180 4 19 0 20 -78 20 -45 0 -99 3 -120 7
l-38 8 6 -93z"/>
<path d="M3812 5240 c-133 -60 -210 -193 -234 -402 -20 -175 12 -338 84 -433
85 -113 233 -122 326 -21 22 24 47 57 55 73 23 44 39 151 32 213 -11 92 -15
98 -35 51 -23 -49 -71 -81 -123 -81 -52 0 -73 13 -97 60 -32 64 -28 76 29 83
87 10 157 59 196 137 12 23 20 66 22 125 4 80 2 95 -19 134 -14 26 -38 52 -58
62 -45 25 -123 24 -178 -1z m102 -196 c20 -19 20 -26 2 -69 -13 -31 -75 -75
-106 -75 -26 0 7 105 44 143 22 21 40 22 60 1z"/>
<path d="M8065 1787 c-86 -33 -226 -170 -297 -289 -80 -135 -112 -312 -72
-406 63 -151 241 -158 430 -16 130 97 244 240 244 305 0 30 -6 42 -25 55 -35
23 -57 11 -122 -64 -103 -121 -147 -163 -197 -189 -64 -33 -128 -35 -157 -7
-12 12 -19 26 -16 31 4 6 44 31 89 58 166 96 286 257 296 396 5 67 4 69 -31
104 -28 28 -42 35 -73 34 -22 0 -53 -6 -69 -12z m-5 -226 c-24 -49 -125 -159
-136 -149 -12 12 27 76 81 134 61 65 84 71 55 15z"/>
<path d="M7454 1781 c-71 -18 -191 -125 -270 -244 -162 -241 -198 -462 -91
-565 124 -120 311 -34 499 228 64 91 80 131 65 173 -22 65 -76 57 -128 -20
-113 -166 -247 -281 -298 -253 -30 16 -36 55 -17 122 32 117 136 288 211 350
34 28 29 0 -9 -49 -56 -72 -44 -153 23 -153 35 0 105 73 137 143 54 119 40
233 -32 263 -36 15 -44 16 -90 5z"/>
<path d="M3831 1753 c-36 -34 -205 -370 -319 -633 -190 -441 -342 -865 -344
-957 -2 -65 49 -113 95 -92 32 14 36 25 118 264 60 176 179 489 192 501 2 3
24 -1 49 -7 85 -23 187 28 294 144 122 133 224 361 224 500 0 24 -10 62 -22
87 -28 56 -79 77 -143 61 -21 -5 -41 -9 -43 -7 -1 2 2 24 8 49 22 99 -43 151
-109 90z m129 -326 c0 -98 -144 -348 -233 -404 -41 -26 -83 -28 -80 -3 3 26
68 167 115 247 75 128 198 228 198 160z"/>
<path d="M6195 1730 c-58 -13 -121 -53 -191 -124 -129 -130 -208 -275 -223
-411 -22 -195 58 -297 222 -282 98 9 192 63 307 177 148 145 191 229 142 273
-33 30 -63 21 -112 -35 -141 -164 -238 -238 -309 -238 -28 0 -81 33 -81 51 0
5 19 18 43 28 59 26 182 120 228 176 57 69 112 185 117 249 4 52 -13 105 -39
122 -22 13 -74 20 -104 14z m-37 -243 c-25 -45 -120 -147 -137 -147 -18 0 -13
19 22 73 38 59 113 131 128 122 5 -4 0 -23 -13 -48z"/>
<path d="M5360 1689 c-36 -22 -122 -90 -153 -121 -24 -25 -27 -23 -25 17 2 46
-25 75 -69 75 -92 0 -218 -211 -335 -565 -72 -215 -69 -284 12 -285 45 0 68
28 133 163 41 83 93 171 141 235 70 94 96 115 96 77 0 -7 14 -24 32 -36 71
-51 189 -19 301 82 85 75 109 136 69 172 -29 26 -53 21 -119 -28 -64 -46 -113
-66 -113 -46 0 7 31 45 69 85 76 80 88 104 70 138 -32 62 -54 70 -109 37z"/>
<path d="M6975 1690 c-22 -11 -63 -40 -92 -65 -28 -25 -54 -45 -57 -45 -3 0
-6 9 -6 20 0 34 -22 68 -50 80 -58 24 -94 -18 -196 -228 -159 -325 -199 -469
-145 -513 28 -23 69 -25 98 -4 12 9 50 69 83 134 34 65 75 134 91 152 l30 34
-7 -30 c-29 -126 -31 -216 -8 -296 21 -70 55 -114 100 -129 32 -11 39 -10 63
7 44 33 47 61 16 127 -15 33 -30 78 -33 102 -11 104 59 284 181 462 48 70 57
90 57 127 0 79 -47 104 -125 65z"/>
<path d="M5753 1678 c-58 -64 -194 -320 -237 -448 -81 -239 -92 -315 -51 -355
27 -28 42 -30 79 -14 23 11 56 62 56 88 0 6 23 79 51 163 32 96 82 215 135
321 88 176 100 220 66 250 -27 24 -74 21 -99 -5z"/>
<path d="M4490 1666 c-121 -42 -291 -230 -353 -386 -126 -319 35 -521 308
-386 121 60 275 207 330 315 23 45 13 99 -20 107 -42 11 -58 0 -144 -99 -134
-154 -247 -216 -309 -170 -14 11 -27 24 -29 30 -2 5 35 32 83 59 109 61 205
161 258 268 65 131 59 224 -18 260 -40 19 -59 19 -106 2z m-30 -255 c-36 -58
-122 -140 -128 -123 -5 16 70 123 114 162 49 42 55 24 14 -39z"/>
<path d="M3393 1620 c-18 -10 -60 -53 -94 -95 -34 -41 -65 -75 -69 -75 -4 0
-10 30 -12 66 -3 55 -8 70 -27 85 -26 22 -68 24 -92 6 -36 -27 -41 -58 -43
-233 -1 -160 -2 -174 -22 -196 -12 -13 -35 -45 -53 -71 -18 -26 -66 -83 -107
-127 -73 -79 -80 -94 -74 -155 3 -35 29 -65 56 -65 39 0 69 25 140 121 64 87
84 100 84 57 0 -37 41 -109 67 -119 41 -15 88 -10 124 14 70 47 211 252 250
364 17 46 18 61 9 84 -7 16 -20 31 -30 34 -35 11 -66 -17 -124 -114 -70 -118
-118 -177 -134 -167 -8 4 -12 37 -12 87 0 77 2 83 39 137 21 31 74 97 117 146
123 138 133 159 93 210 -24 31 -43 33 -86 6z"/>
<path d="M2592 1589 c-112 -52 -291 -274 -335 -414 -31 -100 -31 -234 0 -292
96 -179 392 -91 599 178 79 103 91 161 39 189 -37 20 -63 3 -143 -92 -116
-139 -184 -188 -265 -188 -48 0 -74 15 -79 45 -2 16 12 28 77 59 149 74 277
232 307 380 12 64 1 104 -40 136 -33 26 -103 26 -160 -1z m38 -187 c0 -31
-130 -182 -157 -182 -19 0 -17 5 20 63 47 73 137 152 137 119z"/>
</g>
</svg>
